<svg width="133" height="30" viewBox="0 0 133 30" fill="none" xmlns="http://www.w3.org/2000/svg">
<circle cx="43" cy="15" r="7" fill="url(#paint0_linear_550_444)"/>
<circle cx="78" cy="15" r="7" fill="url(#paint1_linear_550_444)"/>
<path d="M1.632 24V7.056H4.272L5.4 10.44V24H1.632ZM13.32 24L3.336 11.208L4.272 7.056L14.256 19.848L13.32 24ZM13.32 24L12.312 20.616V7.056H16.08V24H13.32ZM22.2308 17.016V14.232H25.8068C26.5588 14.232 27.1348 14.04 27.5348 13.656C27.9508 13.272 28.1588 12.752 28.1588 12.096C28.1588 11.488 27.9588 10.984 27.5588 10.584C27.1588 10.184 26.5828 9.984 25.8308 9.984H22.2308V7.056H26.2628C27.3828 7.056 28.3668 7.272 29.2148 7.704C30.0628 8.12 30.7268 8.704 31.2068 9.456C31.6868 10.208 31.9268 11.072 31.9268 12.048C31.9268 13.04 31.6868 13.912 31.2068 14.664C30.7268 15.4 30.0548 15.976 29.1908 16.392C28.3268 16.808 27.3108 17.016 26.1428 17.016H22.2308ZM19.3508 24V7.056H23.1188V24H19.3508ZM28.5668 24L23.2868 16.704L26.7428 15.768L33.0308 24H28.5668ZM42.5771 24.264C41.3451 24.264 40.1851 24.04 39.0971 23.592C38.0251 23.144 37.0891 22.528 36.2891 21.744C35.4891 20.944 34.8571 20.016 34.3931 18.96C33.9451 17.888 33.7211 16.736 33.7211 15.504C33.7211 14.272 33.9531 13.128 34.4171 12.072C34.8811 11.016 35.5211 10.096 36.3371 9.312C37.1691 8.512 38.1371 7.896 39.2411 7.464C40.3451 7.016 41.5291 6.792 42.7931 6.792C44.2491 6.792 45.5691 7.056 46.7531 7.584C47.9531 8.112 48.9451 8.84 49.7291 9.768L47.1611 12.336C46.6171 11.632 45.9771 11.104 45.2411 10.752C44.5051 10.4 43.6731 10.224 42.7451 10.224C41.7531 10.224 40.8651 10.448 40.0811 10.896C39.2971 11.328 38.6811 11.944 38.2331 12.744C37.8011 13.528 37.5851 14.448 37.5851 15.504C37.5851 16.56 37.8011 17.488 38.2331 18.288C38.6651 19.088 39.2571 19.712 40.0091 20.16C40.7611 20.608 41.6251 20.832 42.6011 20.832C43.5931 20.832 44.4331 20.648 45.1211 20.28C45.8251 19.896 46.3611 19.352 46.7291 18.648C47.1131 17.928 47.3051 17.056 47.3051 16.032L49.8011 17.712L42.2411 17.592V14.4H51.1451V14.952C51.1451 16.984 50.7771 18.696 50.0411 20.088C49.3211 21.464 48.3131 22.504 47.0171 23.208C45.7371 23.912 44.2571 24.264 42.5771 24.264ZM53.4289 24V7.056H56.0689L57.1969 10.44V24H53.4289ZM65.1169 24L55.1329 11.208L56.0689 7.056L66.0529 19.848L65.1169 24ZM65.1169 24L64.1089 20.616V7.056H67.8769V24H65.1169ZM77.9636 24.264C76.5716 24.264 75.3396 23.968 74.2676 23.376C73.2116 22.784 72.3796 21.968 71.7716 20.928C71.1796 19.872 70.8836 18.672 70.8836 17.328V7.056H74.6756V17.544C74.6756 18.216 74.8196 18.8 75.1076 19.296C75.3956 19.792 75.7876 20.176 76.2836 20.448C76.7956 20.704 77.3556 20.832 77.9636 20.832C78.6036 20.832 79.1636 20.704 79.6436 20.448C80.1236 20.176 80.4996 19.8 80.7716 19.32C81.0596 18.824 81.2036 18.24 81.2036 17.568V7.056H84.9956V17.352C84.9956 18.696 84.6996 19.888 84.1076 20.928C83.5156 21.968 82.6916 22.784 81.6356 23.376C80.5796 23.968 79.3556 24.264 77.9636 24.264ZM98.3293 24L93.6013 16.44H93.1453L86.6173 7.056H91.1053L95.7613 14.16H96.2173L102.745 24H98.3293ZM86.3053 24L92.5693 14.928L95.4733 16.56L90.6013 24H86.3053ZM96.3613 16.008L93.4573 14.376L98.1613 7.056H102.457L96.3613 16.008ZM107.901 24V7.296H111.669V24H107.901ZM102.597 10.344V7.056H116.973V10.344H102.597ZM115.719 24L122.439 7.056H125.847L132.495 24H128.511L123.423 9.936H124.791L119.631 24H115.719ZM119.535 20.928V17.856H128.775V20.928H119.535Z" fill="black"/>
<defs>
<linearGradient id="paint0_linear_550_444" x1="37" y1="15" x2="82.5" y2="15" gradientUnits="userSpaceOnUse">
<stop stop-color="#C27DF9"/>
<stop offset="0.498289" stop-color="#9B2727"/>
<stop offset="1" stop-color="#5CB84D"/>
</linearGradient>
<linearGradient id="paint1_linear_550_444" x1="83" y1="15" x2="37.5" y2="15" gradientUnits="userSpaceOnUse">
<stop stop-color="#5CB84D"/>
<stop offset="0.498289" stop-color="#9B2727"/>
<stop offset="1" stop-color="#C27DF9"/>
</linearGradient>
</defs>
</svg>
